<svg width="199" height="220" viewBox="0 0 199 220" fill="none" xmlns="http://www.w3.org/2000/svg">
<g filter="url(#filter0_d_6637_39938)">
<path d="M91.1384 14.1934C96.0889 11.3353 102.188 11.3353 107.138 14.1934L174.277 52.9558C179.227 55.8139 182.277 61.096 182.277 66.8122V144.337C182.277 150.053 179.227 155.335 174.277 158.193L107.138 196.956C102.188 199.814 96.0889 199.814 91.1384 196.956L24 158.193C19.0496 155.335 16 150.053 16 144.337V66.8122C16 61.096 19.0496 55.8139 24 52.9558L91.1384 14.1934Z" fill="white"/>
<path d="M91.1384 14.1934C96.0889 11.3353 102.188 11.3353 107.138 14.1934L174.277 52.9558C179.227 55.8139 182.277 61.096 182.277 66.8122V144.337C182.277 150.053 179.227 155.335 174.277 158.193L107.138 196.956C102.188 199.814 96.0889 199.814 91.1384 196.956L24 158.193C19.0496 155.335 16 150.053 16 144.337V66.8122C16 61.096 19.0496 55.8139 24 52.9558L91.1384 14.1934Z" stroke="url(#paint0_linear_6637_39938)" stroke-width="4"/>
</g>
<defs>
<filter id="filter0_d_6637_39938" x="0" y="0.0498047" width="198.277" height="219.05" filterUnits="userSpaceOnUse" color-interpolation-filters="sRGB">
<feFlood flood-opacity="0" result="BackgroundImageFix"/>
<feColorMatrix in="SourceAlpha" type="matrix" values="0 0 0 0 0 0 0 0 0 0 0 0 0 0 0 0 0 0 127 0" result="hardAlpha"/>
<feOffset dy="4"/>
<feGaussianBlur stdDeviation="7"/>
<feComposite in2="hardAlpha" operator="out"/>
<feColorMatrix type="matrix" values="0 0 0 0 0 0 0 0 0 0 0 0 0 0 0 0 0 0 0.14 0"/>
<feBlend mode="normal" in2="BackgroundImageFix" result="effect1_dropShadow_6637_39938"/>
<feBlend mode="normal" in="SourceGraphic" in2="effect1_dropShadow_6637_39938" result="shape"/>
</filter>
<linearGradient id="paint0_linear_6637_39938" x1="99.1384" y1="12.0498" x2="99.1384" y2="199.099" gradientUnits="userSpaceOnUse">
<stop stop-color="#733F6F"/>
<stop offset="1" stop-color="#C6777C"/>
</linearGradient>
</defs>
</svg>
