<svg width="199" height="220" viewBox="0 0 199 220" fill="none" xmlns="http://www.w3.org/2000/svg">
<g filter="url(#filter0_d_6637_39908)">
<path d="M91.1384 14.1436C96.0889 11.2855 102.188 11.2855 107.138 14.1436L174.277 52.906C179.227 55.7641 182.277 61.0462 182.277 66.7624V144.287C182.277 150.003 179.227 155.285 174.277 158.144L107.138 196.906C102.188 199.764 96.0889 199.764 91.1384 196.906L24 158.144C19.0496 155.285 16 150.003 16 144.287V66.7624C16 61.0461 19.0496 55.7641 24 52.906L91.1384 14.1436Z" fill="white"/>
<path d="M91.1384 14.1436C96.0889 11.2855 102.188 11.2855 107.138 14.1436L174.277 52.906C179.227 55.7641 182.277 61.0462 182.277 66.7624V144.287C182.277 150.003 179.227 155.285 174.277 158.144L107.138 196.906C102.188 199.764 96.0889 199.764 91.1384 196.906L24 158.144C19.0496 155.285 16 150.003 16 144.287V66.7624C16 61.0461 19.0496 55.7641 24 52.906L91.1384 14.1436Z" stroke="url(#paint0_linear_6637_39908)" stroke-width="4"/>
</g>
<defs>
<filter id="filter0_d_6637_39908" x="0" y="0" width="198.277" height="219.05" filterUnits="userSpaceOnUse" color-interpolation-filters="sRGB">
<feFlood flood-opacity="0" result="BackgroundImageFix"/>
<feColorMatrix in="SourceAlpha" type="matrix" values="0 0 0 0 0 0 0 0 0 0 0 0 0 0 0 0 0 0 127 0" result="hardAlpha"/>
<feOffset dy="4"/>
<feGaussianBlur stdDeviation="7"/>
<feComposite in2="hardAlpha" operator="out"/>
<feColorMatrix type="matrix" values="0 0 0 0 0 0 0 0 0 0 0 0 0 0 0 0 0 0 0.14 0"/>
<feBlend mode="normal" in2="BackgroundImageFix" result="effect1_dropShadow_6637_39908"/>
<feBlend mode="normal" in="SourceGraphic" in2="effect1_dropShadow_6637_39908" result="shape"/>
</filter>
<linearGradient id="paint0_linear_6637_39908" x1="17.4606" y1="105.526" x2="184.805" y2="105.526" gradientUnits="userSpaceOnUse">
<stop stop-color="#F8A84B"/>
<stop offset="1" stop-color="#E76C00"/>
</linearGradient>
</defs>
</svg>
